<?xml version="1.0" encoding="utf-8"?>
<!-- Generator: Adobe Illustrator 19.0.0, SVG Export Plug-In . SVG Version: 6.00 Build 0)  -->
<svg version="1.1" id="Layer_1" xmlns="http://www.w3.org/2000/svg" xmlns:xlink="http://www.w3.org/1999/xlink" x="0px" y="0px"
	 viewBox="0 0 284.4 92.2" style="enable-background:new 0 0 284.4 92.2;" xml:space="preserve">
<style type="text/css">
	.st0{fill:#C4C1BF;}
	.st1{fill:#E23328;}
	.st2{fill:#221F1F;}
</style>
<g>
	<g>
		<path d="M49.6,28.9c-3.2-4-7.6-6-13.3-6l-4,0c-2,0-3.9,0.7-5.6,2.1c-1.7,1.4-2.9,3.2-3.3,5.2L17.7,57c-0.4,2-0.1,3.7,1.1,5.1
			c1.1,1.4,2.7,2.1,4.7,2.1l4,0c5.7,0,11-2.1,15.9-6.1c4.9-4,8-9,9.2-14.6C53.8,37.8,52.8,32.9,49.6,28.9z M46.5,43.6
			c-0.8,4-3,7.5-6.4,10.3c-3.4,2.8-7.2,4.2-11.2,4.2l-4,0c-0.3,0-0.6-0.1-0.8-0.3l0,0c-0.2-0.2-0.2-0.5-0.1-0.9l5.6-26.7
			c0.1-0.3,0.2-0.6,0.5-0.8c0.3-0.2,0.6-0.3,0.9-0.3l4,0c4,0,7.2,1.4,9.5,4.3C46.6,36.1,47.3,39.6,46.5,43.6z"/>
		<path d="M72.6,36.8c0.2-0.8,0-1.5-0.4-2.1c-0.5-0.6-1.1-0.9-1.9-0.9l-1.5,0c-3.2,0-6.2,1.1-8.9,3.4c-2.7,2.3-4.4,5-5.1,8.2
			l-3.3,15.8c-0.2,0.8,0,1.5,0.4,2.1c0.5,0.6,1.1,0.9,1.9,0.9l0.1,0c0.8,0,1.6-0.3,2.3-0.9c0.7-0.6,1.2-1.3,1.4-2.1l3.3-15.8
			c0.3-1.5,1.2-2.8,2.4-3.8c1.3-1,2.7-1.6,4.2-1.6l1.5,0c0.8,0,1.6-0.3,2.3-0.9C71.9,38.4,72.4,37.7,72.6,36.8L72.6,36.8z"/>
		<path d="M96.6,36.3c-2.1-1.6-4.7-2.5-7.7-2.5c-4.2,0-8.1,1.5-11.7,4.5c-3.6,3-5.9,6.6-6.8,10.8c-0.9,4.2-0.1,7.7,2.2,10.7
			c2.3,2.9,5.6,4.4,9.7,4.4c3.3,0,6.4-1,9.5-2.9c3-1.8,5.3-4.3,7-7.3c0.2-0.4,0.4-0.7,0.4-1.1c0.1-0.6,0-1.1-0.2-1.6
			c-0.4-0.8-1.1-1.3-2.2-1.3c-1.5,0-2.6,0.7-3.4,2.1c-1,1.8-2.4,3.2-4.2,4.4c-1.8,1.1-3.7,1.7-5.7,1.7c-2.9,0-5-0.9-6-2.7l-0.1-0.2
			l0.2-0.1c1-0.4,4.2-1.8,9.7-4l10.8-4.4c0.9-0.4,1.5-0.9,2-1.7c0.2-0.4,0.3-0.7,0.4-1.1c0.1-0.4,0.1-0.8-0.1-1.3
			C100.1,40,98.7,37.9,96.6,36.3z M76.3,49.7l0.2-0.6c0.5-2.5,1.9-4.6,4-6.4c2.1-1.8,4.5-2.6,7-2.6c2.8,0,4.8,0.8,5.8,2.5l0.1,0.2
			L76.3,49.7z"/>
		<path d="M125,60.5l-0.1,0.7c-0.2,0.8,0,1.5,0.4,2.1c0.5,0.6,1.1,0.9,1.9,0.9h0.1c0.8,0,1.6-0.3,2.3-0.9c0.7-0.6,1.2-1.3,1.4-2.1
			l2.6-12.2c0.9-4.2,0.2-7.7-2.2-10.7c-2.3-2.9-5.6-4.4-9.7-4.4c-4.2,0-8.1,1.5-11.7,4.5c-3.6,3-5.9,6.6-6.8,10.8
			c-0.9,4.2-0.1,7.7,2.2,10.7c2.3,2.9,5.6,4.4,9.7,4.4c3.8,0,7-1.1,9.4-3.2L125,60.5z M116.5,58c-2.5,0-4.5-0.9-5.9-2.6
			c-1.4-1.8-1.8-4-1.3-6.5c0.5-2.5,1.9-4.6,4-6.4c2.1-1.8,4.5-2.6,7-2.7c2.5,0,4.5,0.9,5.9,2.7c1.4,1.8,1.9,3.9,1.3,6.4
			c-0.5,2.5-1.9,4.7-4,6.4C121.3,57.2,119,58,116.5,58z"/>
		<path d="M172.2,33.8c-4.2,0-7.6,1.4-10.3,4.2l-0.2,0.2l-0.1-0.3c-1.5-2.7-4.4-4.1-8.5-4.1c-3.5,0-6.8,1.3-9.7,3.7
			c-3,2.5-4.9,5.5-5.6,9l-3.1,14.7c-0.2,0.8,0,1.5,0.4,2.1c0.5,0.6,1.1,0.9,1.9,0.9l0.1,0c0.8,0,1.6-0.3,2.3-0.9
			c0.7-0.6,1.2-1.3,1.4-2.1l3.1-14.7c0.4-1.8,1.3-3.3,2.9-4.6c1.5-1.3,3.2-1.9,5-1.9c1.8,0,3.2,0.6,4.2,1.9c1,1.3,1.3,2.8,1,4.6
			l-3.1,14.7c-0.2,0.8,0,1.5,0.4,2.1c0.5,0.6,1.1,0.9,1.9,0.9h0.1c0.9,0,1.6-0.3,2.3-0.9c0.7-0.6,1.2-1.3,1.4-2.2l3.1-14.7
			c0.4-1.8,1.3-3.3,2.9-4.6c1.5-1.3,3.2-1.9,5-1.9c1.8,0,3.3,0.6,4.3,1.9c1,1.3,1.3,2.8,1,4.6l-3.1,14.7c-0.2,0.8,0,1.5,0.4,2.1
			c0.4,0.6,1,0.9,1.9,0.9l0.1,0c0.8,0,1.6-0.3,2.4-0.9c0.7-0.6,1.2-1.3,1.3-2.1l3.1-14.7c0.7-3.4,0.1-6.4-1.8-8.9
			C178.3,35,175.6,33.8,172.2,33.8z"/>
		<path d="M208.6,37.3c0.3-1.5-0.2-2.4-1.5-2.8c-1.4-0.5-2.8-0.7-4.4-0.7c-4.2,0-8.1,1.5-11.7,4.5c-3.6,3-5.9,6.6-6.8,10.8
			c-0.9,4.2-0.1,7.7,2.2,10.7c2.3,2.9,5.6,4.4,9.7,4.4c1.6,0,3.2-0.2,4.7-0.7c1.5-0.5,2.4-1.4,2.8-2.9c0.2-1,0-1.8-0.7-2.4
			c-0.5-0.4-1-0.6-1.6-0.6c-0.3,0-0.6,0.1-1,0.2c-1,0.3-1.9,0.4-2.9,0.4c-2.5,0-4.5-0.9-5.9-2.7c-1.4-1.8-1.8-3.9-1.3-6.4
			c0.5-2.5,1.9-4.7,4-6.4c2.1-1.8,4.5-2.6,7-2.6c1,0,1.9,0.1,2.7,0.4c0.3,0.1,0.6,0.1,0.9,0.1c0.6,0,1.2-0.2,1.9-0.6
			c0.9-0.6,1.5-1.4,1.7-2.4L208.6,37.3z"/>
		<path d="M220.9,64.1c3.8,0,7-1.1,9.4-3.2l0.5-0.4l-0.1,0.7c-0.2,0.8,0,1.5,0.4,2.1c0.5,0.6,1.1,0.9,1.9,0.9l0.1,0
			c0.8,0,1.6-0.3,2.3-0.9c0.7-0.6,1.2-1.3,1.4-2.1l2.6-12.2c0.9-4.2,0.2-7.7-2.2-10.7c-2.3-2.9-5.6-4.4-9.7-4.4
			c-4.2,0-8.1,1.5-11.7,4.5c-3.6,3-5.9,6.6-6.8,10.8c-0.9,4.2-0.1,7.7,2.2,10.7C213.5,62.6,216.8,64.1,220.9,64.1z M215.1,48.8
			c0.5-2.5,1.9-4.6,4-6.4c2.1-1.8,4.5-2.6,7-2.7c2.5,0,4.5,0.9,5.9,2.7c1.4,1.8,1.8,3.9,1.3,6.4c-0.5,2.5-1.9,4.7-4,6.4
			c-2.1,1.7-4.4,2.6-6.9,2.6c-2.5,0-4.5-0.9-5.9-2.6C215,53.5,214.6,51.4,215.1,48.8z"/>
		<path d="M252.5,57.1c-0.7,0.6-1.4,0.9-2.3,0.9l-7.2,0c-0.8,0-1.6,0.3-2.3,0.9c-0.7,0.6-1.2,1.3-1.4,2.1l0,0.1
			c-0.2,0.8,0,1.5,0.4,2.1c0.5,0.6,1.1,0.9,1.9,0.9l7,0c2.5,0,4.9-0.9,7-2.7c2.2-1.8,3.5-4,4-6.5c0.5-2.5,0.2-4.5-0.9-5.8
			c-0.8-0.9-2.2-1.7-4.1-2.3c-3.4-0.9-4-1.2-4.2-1.4c-1-0.6-1.4-1.5-1.1-2.6c0.2-0.8,0.6-1.5,1.3-2.1c0.7-0.6,1.5-0.9,2.3-0.9l5.2,0
			c0.8,0,1.6-0.3,2.3-0.9c0.7-0.6,1.2-1.3,1.4-2.1l0-0.1c0.2-0.8,0-1.5-0.4-2.1c-0.5-0.6-1.1-0.9-1.9-0.9l-4.9,0
			c-2.5,0-4.9,0.9-7,2.7c-2.2,1.8-3.5,4-4,6.4c-0.6,2.6-0.3,4.6,0.9,5.9c0.8,1,2.2,1.8,4.1,2.4c3.9,1.2,4.2,1.3,4.3,1.3
			c1,0.6,1.4,1.4,1.2,2.5C253.7,55.8,253.2,56.5,252.5,57.1z"/>
		<path d="M277.1,33.7l-4.3,0l1.7-8c0.2-0.8,0-1.5-0.4-2.1c-0.5-0.6-1.1-0.8-1.9-0.8h-0.1c-0.8,0-1.6,0.3-2.3,0.9
			c-0.7,0.6-1.2,1.3-1.4,2.2L262,55.9c-0.5,2.2-0.1,4.2,1.2,5.7c1.3,1.6,3,2.4,5.3,2.4l2.1,0c0.8,0,1.6-0.3,2.3-0.9
			c0.7-0.6,1.2-1.3,1.4-2.1l0-0.1c0.2-0.8,0-1.5-0.4-2.1c-0.5-0.6-1.1-0.9-1.9-0.9l-2.1,0c-0.6,0-1.1-0.2-1.4-0.6
			c-0.3-0.4-0.4-0.9-0.3-1.5l3.4-16l4.2,0c0.8,0,1.6-0.3,2.3-0.9c0.7-0.6,1.2-1.3,1.4-2.1l0-0.1c0.2-0.8,0-1.5-0.4-2.1
			C278.5,34,277.9,33.7,277.1,33.7z"/>
		<path class="st0" d="M19.2,32.3c0.1-0.2,0.1-0.3,0.1-0.4c-0.1,0-0.1,0-0.2,0C19.1,32,19.1,32.2,19.2,32.3z"/>
		<path class="st1" d="M21.3,17.4c7.8-5.6,15.8-7.7,15.8-7.7s-7.7-2.2-17.5,4.1C9.6,20.3,9.5,32.5,9.5,32.5S14.9,22,21.3,17.4z"/>
		<path class="st1" d="M24.8,22.8c4.5-4,9.1-5.7,9.1-5.7s-4.6-2.1-10.1,2.2c-6.1,4.8-5.9,11-5.9,11S21.3,25.9,24.8,22.8z"/>
		<g>
			<path class="st2" d="M120.7,73.6l3.7,0c0.1,0,0.2,0,0.3,0.1c0.1,0.1,0.1,0.2,0.1,0.3v0c0,0.1-0.1,0.2-0.2,0.3
				c-0.1,0.1-0.2,0.1-0.3,0.1l-3.7,0l-0.5,2.5c-0.1,0.3,0,0.6,0.2,0.9c0.2,0.2,0.5,0.4,0.8,0.4l2.5,0c0.1,0,0.2,0,0.3,0.1
				c0.1,0.1,0.1,0.2,0.1,0.3v0c0,0.1-0.1,0.2-0.2,0.3c-0.1,0.1-0.2,0.1-0.3,0.1l-2.5,0c-0.6,0-1-0.2-1.4-0.6
				c-0.3-0.4-0.4-0.9-0.3-1.5l1.2-5.8c0.1-0.6,0.4-1.1,0.9-1.5c0.5-0.4,1-0.6,1.6-0.6l2.5,0c0.1,0,0.2,0,0.3,0.1
				c0.1,0.1,0.1,0.2,0.1,0.3l0,0c0,0.1-0.1,0.2-0.2,0.3c-0.1,0.1-0.2,0.1-0.3,0.1l-2.5,0c-0.3,0-0.7,0.1-1,0.4
				c-0.3,0.2-0.5,0.5-0.6,0.9L120.7,73.6z"/>
			<path class="st2" d="M125.8,78.6c0,0.1-0.1,0.2-0.2,0.3c-0.1,0.1-0.2,0.1-0.3,0.1h0c-0.1,0-0.2,0-0.3-0.1
				c-0.1-0.1-0.1-0.2-0.1-0.3l0.8-3.8c0.2-0.8,0.6-1.5,1.3-2.1c0.7-0.6,1.5-0.9,2.3-0.9c0.8,0,1.4,0.3,1.9,0.9
				c0.5,0.6,0.6,1.3,0.4,2.1l-0.8,3.8c0,0.1-0.1,0.2-0.2,0.3c-0.1,0.1-0.2,0.1-0.3,0.1l0,0c-0.1,0-0.2,0-0.3-0.1
				c-0.1-0.1-0.1-0.2-0.1-0.3l0.8-3.8c0.1-0.6,0-1.1-0.3-1.5c-0.3-0.4-0.8-0.6-1.3-0.6c-0.6,0-1.1,0.2-1.6,0.6
				c-0.5,0.4-0.8,0.9-0.9,1.5L125.8,78.6z"/>
			<path class="st2" d="M135.1,81.1c0.7,0,1.4-0.3,2-0.8c0.7-0.5,1.1-1.2,1.3-1.9l0.1-0.5c-1.1,0.8-2.1,1.2-3,1.2
				c-1,0-1.8-0.3-2.3-1.1c-0.6-0.7-0.7-1.5-0.5-2.5c0.2-1,0.7-1.8,1.6-2.5c0.8-0.7,1.8-1.1,2.8-1.1c1,0,1.8,0.3,2.3,1
				c0.6,0.7,0.7,1.5,0.5,2.5l-0.6,2.9c-0.2,1-0.8,1.8-1.7,2.5c-0.9,0.7-1.8,1.1-2.7,1.1c-1.4,0-2.4-0.5-2.8-1.6c0-0.1,0-0.2,0-0.4
				c0.1-0.1,0.2-0.2,0.3-0.3l0,0c0.2-0.1,0.4,0,0.5,0.2C133.3,80.6,134,81.1,135.1,81.1z M139,75.4c0.1-0.7,0-1.4-0.4-1.9
				c-0.4-0.5-1-0.8-1.7-0.8c-0.8,0-1.5,0.3-2.1,0.8c-0.6,0.5-1,1.2-1.2,1.9c-0.2,0.8,0,1.4,0.4,1.9c0.4,0.5,1,0.8,1.8,0.8
				c0.8,0,1.4-0.3,2.1-0.8C138.4,76.9,138.8,76.2,139,75.4L139,75.4z"/>
			<path class="st2" d="M147.9,72.9c0.6,0.7,0.7,1.5,0.5,2.5l-0.7,3.2c0,0.1-0.1,0.2-0.2,0.3c-0.1,0.1-0.2,0.1-0.3,0.1h0
				c-0.1,0-0.2,0-0.3-0.1c-0.1-0.1-0.1-0.2-0.1-0.3l0.2-0.8c-1.1,0.8-2.1,1.2-3,1.2c-1,0-1.8-0.3-2.3-1c-0.6-0.7-0.7-1.5-0.5-2.5
				c0.2-1,0.7-1.8,1.6-2.5c0.8-0.7,1.8-1.1,2.8-1.1C146.6,71.9,147.4,72.2,147.9,72.9z M143.3,73.5c-0.6,0.5-1,1.2-1.2,1.9
				c-0.2,0.8,0,1.4,0.4,1.9c0.4,0.5,1,0.8,1.8,0.8c0.8,0,1.4-0.3,2.1-0.8c0.6-0.5,1-1.2,1.2-1.9c0.2-0.7,0-1.4-0.4-1.9
				c-0.4-0.5-1-0.8-1.7-0.8C144.7,72.7,144,73,143.3,73.5z"/>
			<path class="st2" d="M152,81c0.7,0,1.4-0.3,2-0.8c0.7-0.5,1.1-1.2,1.3-1.9l0.1-0.5c-1.1,0.8-2.1,1.2-3,1.2c-1,0-1.8-0.4-2.3-1.1
				c-0.6-0.7-0.7-1.5-0.5-2.5c0.2-1,0.7-1.8,1.6-2.5c0.8-0.7,1.8-1.1,2.8-1.1c1,0,1.8,0.3,2.3,1c0.6,0.7,0.7,1.5,0.5,2.5l-0.6,2.9
				c-0.2,1-0.8,1.8-1.7,2.5c-0.9,0.7-1.8,1.1-2.7,1.1c-1.4,0-2.4-0.5-2.8-1.6c0-0.1,0-0.2,0-0.4c0.1-0.1,0.2-0.2,0.3-0.3l0,0
				c0.2-0.1,0.4,0,0.5,0.2C150.2,80.6,151,81,152,81z M155.9,75.4c0.1-0.7,0-1.4-0.4-1.9c-0.4-0.5-1-0.8-1.7-0.8
				c-0.8,0-1.5,0.3-2.1,0.8c-0.6,0.5-1,1.2-1.2,1.9c-0.2,0.8,0,1.4,0.4,1.9c0.4,0.5,1,0.8,1.8,0.8c0.8,0,1.4-0.3,2.1-0.8
				C155.4,76.8,155.8,76.2,155.9,75.4L155.9,75.4z"/>
			<path class="st2" d="M159.7,71.9c0.1,0,0.2,0,0.3,0.1c0.1,0.1,0.1,0.2,0.1,0.3l-1.3,6.3c0,0.1-0.1,0.2-0.2,0.3
				c-0.1,0.1-0.2,0.1-0.3,0.1h0c-0.1,0-0.2,0-0.3-0.1c-0.1-0.1-0.1-0.2-0.1-0.3l1.3-6.3c0-0.1,0.1-0.2,0.2-0.3
				C159.4,71.9,159.5,71.9,159.7,71.9L159.7,71.9z M160,70.1c-0.2,0-0.3-0.1-0.4-0.2c-0.1-0.1-0.1-0.2-0.1-0.4
				c0-0.2,0.1-0.3,0.2-0.4c0.1-0.1,0.3-0.2,0.4-0.2c0.2,0,0.3,0.1,0.4,0.2c0.1,0.1,0.1,0.2,0.1,0.4c0,0.2-0.1,0.3-0.3,0.4
				C160.3,70.1,160.2,70.1,160,70.1z"/>
			<path class="st2" d="M161.2,78.6c0,0.1-0.1,0.2-0.2,0.3c-0.1,0.1-0.2,0.1-0.3,0.1h0c-0.1,0-0.2,0-0.3-0.1s-0.1-0.2-0.1-0.3
				l0.8-3.8c0.2-0.8,0.6-1.5,1.3-2.1c0.7-0.6,1.5-0.9,2.3-0.9c0.8,0,1.4,0.3,1.9,0.9c0.5,0.6,0.6,1.3,0.4,2.1l-0.8,3.8
				c0,0.1-0.1,0.2-0.2,0.3c-0.1,0.1-0.2,0.1-0.3,0.1h0c-0.1,0-0.2,0-0.3-0.1c-0.1-0.1-0.1-0.2-0.1-0.3l0.8-3.8
				c0.1-0.6,0-1.1-0.3-1.5c-0.3-0.4-0.8-0.6-1.3-0.6c-0.6,0-1.1,0.2-1.6,0.6c-0.5,0.4-0.8,0.9-0.9,1.5L161.2,78.6z"/>
			<path class="st2" d="M170.5,81c0.7,0,1.4-0.3,2-0.8c0.7-0.5,1.1-1.2,1.3-1.9l0.1-0.5c-1.1,0.8-2.1,1.2-3,1.2
				c-1,0-1.8-0.3-2.3-1.1c-0.6-0.7-0.7-1.5-0.5-2.5c0.2-1,0.7-1.8,1.6-2.5c0.8-0.7,1.8-1.1,2.8-1.1c1,0,1.8,0.3,2.3,1
				c0.6,0.7,0.7,1.5,0.5,2.5l-0.6,2.9c-0.2,1-0.8,1.8-1.7,2.5c-0.9,0.7-1.8,1.1-2.7,1.1c-1.4,0-2.4-0.5-2.8-1.6c0-0.1,0-0.2,0-0.4
				c0.1-0.1,0.2-0.2,0.3-0.3l0,0c0.2-0.1,0.4,0,0.5,0.2C168.7,80.6,169.4,81,170.5,81z M174.4,75.4c0.1-0.7,0-1.4-0.4-1.9
				c-0.4-0.5-1-0.8-1.7-0.8c-0.8,0-1.5,0.3-2.1,0.8c-0.6,0.5-1,1.2-1.2,1.9c-0.2,0.8,0,1.4,0.4,1.9c0.4,0.5,1,0.8,1.8,0.8
				c0.8,0,1.4-0.3,2.1-0.8C173.8,76.8,174.2,76.2,174.4,75.4L174.4,75.4z"/>
			<path class="st2" d="M187.5,69.1c0.2,0.1,0.3,0.2,0.2,0.4v0c0,0.1-0.1,0.2-0.2,0.3c-0.1,0.1-0.3,0.1-0.4,0.1
				c-0.3-0.1-0.7-0.1-1-0.1c-1.1,0-2.2,0.4-3.2,1.2c-1,0.8-1.6,1.8-1.8,2.9c-0.2,1.1,0,2.1,0.6,2.9c0.6,0.8,1.5,1.2,2.7,1.2
				c0.4,0,0.7,0,1.1-0.1c0.1,0,0.3,0,0.4,0.1c0.1,0.1,0.1,0.2,0.1,0.3l0,0c0,0.2-0.2,0.4-0.4,0.4c-0.4,0.1-0.9,0.2-1.3,0.2
				c-1.4,0-2.5-0.5-3.2-1.5c-0.8-1-1-2.2-0.7-3.6c0.3-1.4,1-2.6,2.2-3.6c1.2-1,2.5-1.5,3.9-1.5C186.7,69,187.1,69,187.5,69.1z"/>
			<path class="st2" d="M191.8,71.8c1,0,1.8,0.3,2.3,1.1c0.6,0.7,0.7,1.5,0.5,2.5c-0.2,1-0.7,1.8-1.6,2.5c-0.8,0.7-1.8,1.1-2.8,1.1
				c-1,0-1.8-0.4-2.3-1.1c-0.6-0.7-0.7-1.5-0.5-2.5c0.2-1,0.7-1.8,1.6-2.5C189.8,72.2,190.8,71.8,191.8,71.8z M191.6,72.7
				c-0.8,0-1.5,0.3-2.1,0.8c-0.6,0.5-1,1.2-1.2,1.9c-0.2,0.7,0,1.4,0.4,1.9c0.4,0.5,1,0.8,1.8,0.8c0.8,0,1.5-0.3,2.1-0.8
				c0.6-0.5,1.1-1.2,1.2-1.9c0.2-0.8,0-1.4-0.4-1.9C192.9,73,192.3,72.7,191.6,72.7z"/>
			<path class="st2" d="M196,78.6c0,0.1-0.1,0.2-0.2,0.3c-0.1,0.1-0.2,0.1-0.3,0.1h0c-0.1,0-0.2,0-0.3-0.1c-0.1-0.1-0.1-0.2-0.1-0.3
				l0.8-3.8c0.2-0.8,0.6-1.5,1.3-2.1c0.7-0.6,1.4-0.9,2.3-0.9c1,0,1.7,0.5,2.2,1.4c0.9-0.9,1.8-1.4,2.8-1.4c0.8,0,1.4,0.3,1.9,0.9
				c0.5,0.6,0.6,1.3,0.4,2.1l-0.8,3.8c0,0.1-0.1,0.2-0.2,0.3c-0.1,0.1-0.2,0.1-0.3,0.1h0c-0.1,0-0.2,0-0.3-0.1
				c-0.1-0.1-0.1-0.2-0.1-0.3l0.8-3.8c0.1-0.6,0-1.1-0.3-1.5c-0.3-0.4-0.8-0.6-1.3-0.6c-0.6,0-1.1,0.2-1.6,0.6
				c-0.5,0.4-0.8,0.9-0.9,1.5l-0.8,3.8c0,0.1-0.1,0.2-0.2,0.3c-0.1,0.1-0.2,0.1-0.3,0.1h0c-0.1,0-0.2,0-0.3-0.1
				c-0.1-0.1-0.1-0.2-0.1-0.3l0.8-3.8c0.1-0.6,0-1.1-0.3-1.5c-0.3-0.4-0.8-0.6-1.3-0.6c-0.6,0-1.1,0.2-1.6,0.6
				c-0.5,0.4-0.8,0.9-0.9,1.5L196,78.6z"/>
			<path class="st2" d="M208.2,78.6c0,0.1-0.1,0.2-0.2,0.3c-0.1,0.1-0.2,0.1-0.3,0.1l0,0c-0.1,0-0.2,0-0.3-0.1
				c-0.1-0.1-0.1-0.2-0.1-0.3l0.8-3.8c0.2-0.8,0.6-1.5,1.3-2.1c0.7-0.6,1.4-0.9,2.3-0.9c1,0,1.7,0.5,2.2,1.4
				c0.9-0.9,1.8-1.4,2.8-1.4c0.8,0,1.4,0.3,1.9,0.9c0.5,0.6,0.6,1.3,0.4,2.1l-0.8,3.8c0,0.1-0.1,0.2-0.2,0.3
				c-0.1,0.1-0.2,0.1-0.3,0.1h0c-0.1,0-0.2,0-0.3-0.1c-0.1-0.1-0.1-0.2-0.1-0.3l0.8-3.8c0.1-0.6,0-1.1-0.3-1.5
				c-0.3-0.4-0.8-0.6-1.3-0.6c-0.6,0-1.1,0.2-1.6,0.6c-0.5,0.4-0.8,0.9-0.9,1.5l-0.8,3.8c0,0.1-0.1,0.2-0.2,0.3
				c-0.1,0.1-0.2,0.1-0.3,0.1l0,0c-0.1,0-0.2,0-0.3-0.1c-0.1-0.1-0.1-0.2-0.1-0.3l0.8-3.8c0.1-0.6,0-1.1-0.3-1.5
				c-0.3-0.4-0.8-0.6-1.3-0.6c-0.6,0-1.1,0.2-1.6,0.6c-0.5,0.4-0.8,0.9-0.9,1.5L208.2,78.6z"/>
			<path class="st2" d="M221,76c-0.1,0.6,0,1.1,0.3,1.5c0.3,0.4,0.8,0.6,1.4,0.6c0.6,0,1.1-0.2,1.6-0.6c0.5-0.4,0.8-0.9,0.9-1.5
				l0.8-3.8c0-0.1,0.1-0.2,0.2-0.3c0.1-0.1,0.2-0.1,0.3-0.1h0c0.1,0,0.2,0,0.3,0.1c0.1,0.1,0.1,0.2,0.1,0.3L226,76
				c-0.2,0.8-0.6,1.5-1.3,2.1c-0.7,0.6-1.5,0.9-2.3,0.9c-0.8,0-1.5-0.3-1.9-0.9c-0.4-0.6-0.6-1.3-0.4-2.1l0.8-3.8
				c0-0.1,0.1-0.2,0.2-0.3c0.1-0.1,0.2-0.1,0.3-0.1h0c0.1,0,0.2,0,0.3,0.1c0.1,0.1,0.1,0.2,0.1,0.3L221,76z"/>
			<path class="st2" d="M227.8,78.6c0,0.1-0.1,0.2-0.2,0.3c-0.1,0.1-0.2,0.1-0.3,0.1h0c-0.1,0-0.2,0-0.3-0.1
				c-0.1-0.1-0.1-0.2-0.1-0.3l0.8-3.8c0.2-0.8,0.6-1.5,1.3-2.1c0.7-0.6,1.5-0.9,2.3-0.9c0.8,0,1.4,0.3,1.9,0.9
				c0.5,0.6,0.6,1.3,0.4,2.1l-0.8,3.8c0,0.1-0.1,0.2-0.2,0.3c-0.1,0.1-0.2,0.1-0.3,0.1h0c-0.1,0-0.2,0-0.3-0.1
				c-0.1-0.1-0.1-0.2-0.1-0.3l0.8-3.8c0.1-0.6,0-1.1-0.3-1.5c-0.3-0.4-0.8-0.6-1.3-0.6c-0.6,0-1.1,0.2-1.6,0.6
				c-0.5,0.4-0.8,0.9-0.9,1.5L227.8,78.6z"/>
			<path class="st2" d="M236.3,71.8c0.1,0,0.2,0,0.3,0.1c0.1,0.1,0.1,0.2,0.1,0.3l-1.3,6.3c0,0.1-0.1,0.2-0.2,0.3
				c-0.1,0.1-0.2,0.1-0.3,0.1h0c-0.1,0-0.2,0-0.3-0.1c-0.1-0.1-0.1-0.2-0.1-0.3l1.3-6.3c0-0.1,0.1-0.2,0.2-0.3
				C236.1,71.8,236.2,71.8,236.3,71.8L236.3,71.8z M236.7,70c-0.2,0-0.3-0.1-0.4-0.2c-0.1-0.1-0.1-0.2-0.1-0.4
				c0-0.2,0.1-0.3,0.2-0.4c0.1-0.1,0.3-0.2,0.4-0.2c0.2,0,0.3,0.1,0.4,0.2c0.1,0.1,0.1,0.2,0.1,0.4c0,0.2-0.1,0.3-0.3,0.4
				C237,70,236.8,70,236.7,70z"/>
			<path class="st2" d="M242.8,72c0.2,0.1,0.3,0.2,0.2,0.4l0,0c0,0.1-0.1,0.3-0.2,0.3c-0.1,0.1-0.3,0.1-0.4,0.1
				c-0.2-0.1-0.5-0.1-0.8-0.1c-0.8,0-1.5,0.3-2.1,0.8c-0.6,0.5-1,1.2-1.2,1.9c-0.2,0.7,0,1.4,0.4,1.9c0.4,0.5,1,0.8,1.8,0.8
				c0.3,0,0.6,0,0.9-0.1c0.1,0,0.3,0,0.4,0.1c0.1,0.1,0.1,0.2,0.1,0.3c0,0.2-0.2,0.3-0.4,0.4c-0.4,0.1-0.8,0.2-1.1,0.2
				c-1,0-1.8-0.3-2.3-1c-0.6-0.7-0.7-1.5-0.5-2.5c0.2-1,0.7-1.8,1.6-2.5c0.8-0.7,1.8-1.1,2.8-1.1C242.2,71.8,242.5,71.8,242.8,72z"
				/>
			<path class="st2" d="M250.3,72.8c0.6,0.7,0.7,1.5,0.5,2.5l-0.7,3.2c0,0.1-0.1,0.2-0.2,0.3c-0.1,0.1-0.2,0.1-0.3,0.1h0
				c-0.1,0-0.2,0-0.3-0.1c-0.1-0.1-0.1-0.2-0.1-0.3l0.2-0.8c-1.1,0.8-2.1,1.2-3,1.2c-1,0-1.8-0.3-2.3-1.1c-0.6-0.7-0.7-1.5-0.5-2.5
				c0.2-1,0.7-1.8,1.6-2.5c0.8-0.7,1.8-1.1,2.8-1.1C248.9,71.8,249.7,72.1,250.3,72.8z M245.7,73.5c-0.6,0.5-1,1.2-1.2,1.9
				c-0.2,0.8,0,1.4,0.4,1.9c0.4,0.5,1,0.8,1.8,0.8c0.8,0,1.4-0.3,2.1-0.8c0.6-0.5,1-1.2,1.2-1.9c0.2-0.7,0-1.4-0.4-1.9
				c-0.4-0.5-1-0.8-1.7-0.8C247,72.6,246.3,72.9,245.7,73.5z"/>
			<path class="st2" d="M254,68.9c0.1,0,0.2,0,0.3,0.1c0.1,0.1,0.1,0.2,0.1,0.3l-0.5,2.4l1.5,0c0.1,0,0.2,0,0.3,0.1
				c0.1,0.1,0.1,0.2,0.1,0.3l0,0c0,0.1-0.1,0.2-0.2,0.3c-0.1,0.1-0.2,0.1-0.3,0.1l-1.5,0l-1,4.5c-0.1,0.2,0,0.5,0.1,0.6
				c0.1,0.2,0.3,0.3,0.6,0.3l0.6,0c0.1,0,0.2,0,0.3,0.1c0.1,0.1,0.1,0.2,0.1,0.3v0c0,0.1-0.1,0.2-0.2,0.3c-0.1,0.1-0.2,0.1-0.3,0.1
				l-0.6,0c-0.5,0-0.9-0.2-1.1-0.5c-0.3-0.3-0.4-0.8-0.3-1.3l1.7-7.9c0-0.1,0.1-0.2,0.2-0.3C253.8,69,253.9,68.9,254,68.9L254,68.9z
				"/>
			<path class="st2" d="M257.4,71.8c0.1,0,0.2,0,0.3,0.1c0.1,0.1,0.1,0.2,0.1,0.3l-1.3,6.3c0,0.1-0.1,0.2-0.2,0.3
				c-0.1,0.1-0.2,0.1-0.3,0.1h0c-0.1,0-0.2,0-0.3-0.1c-0.1-0.1-0.1-0.2-0.1-0.3l1.3-6.3c0-0.1,0.1-0.2,0.2-0.3
				C257.1,71.8,257.2,71.8,257.4,71.8L257.4,71.8z M257.7,70c-0.2,0-0.3-0.1-0.4-0.2c-0.1-0.1-0.1-0.2-0.1-0.4
				c0-0.2,0.1-0.3,0.2-0.4c0.1-0.1,0.3-0.2,0.4-0.2c0.2,0,0.3,0.1,0.4,0.2c0.1,0.1,0.1,0.2,0.1,0.4c0,0.2-0.1,0.3-0.3,0.4
				C258,70,257.9,70,257.7,70z"/>
			<path class="st2" d="M262.8,71.8c1,0,1.8,0.3,2.3,1c0.6,0.7,0.7,1.5,0.5,2.5c-0.2,1-0.7,1.8-1.6,2.5c-0.8,0.7-1.8,1.1-2.8,1.1
				c-1,0-1.8-0.3-2.3-1.1c-0.6-0.7-0.7-1.5-0.5-2.5c0.2-1,0.7-1.8,1.6-2.5C260.9,72.1,261.9,71.8,262.8,71.8z M262.7,72.6
				c-0.8,0-1.5,0.3-2.1,0.8c-0.6,0.5-1,1.2-1.2,1.9c-0.2,0.7,0,1.4,0.4,1.9c0.4,0.5,1,0.8,1.8,0.8c0.8,0,1.5-0.3,2.1-0.8
				c0.6-0.5,1.1-1.2,1.2-1.9c0.2-0.8,0-1.4-0.4-1.9C264,72.9,263.4,72.6,262.7,72.6z"/>
			<path class="st2" d="M267.1,78.5c0,0.1-0.1,0.2-0.2,0.3c-0.1,0.1-0.2,0.1-0.3,0.1h0c-0.1,0-0.2,0-0.3-0.1
				c-0.1-0.1-0.1-0.2-0.1-0.3l0.8-3.8c0.2-0.8,0.6-1.5,1.3-2.1c0.7-0.6,1.5-0.9,2.3-0.9c0.8,0,1.4,0.3,1.9,0.9
				c0.5,0.6,0.6,1.3,0.4,2.1l-0.8,3.8c0,0.1-0.1,0.2-0.2,0.3c-0.1,0.1-0.2,0.1-0.3,0.1h0c-0.1,0-0.2,0-0.3-0.1
				c-0.1-0.1-0.1-0.2-0.1-0.3l0.8-3.8c0.1-0.6,0-1.1-0.3-1.5c-0.3-0.4-0.8-0.6-1.3-0.6c-0.6,0-1.1,0.2-1.6,0.6
				c-0.5,0.4-0.8,0.9-0.9,1.5L267.1,78.5z"/>
		</g>
	</g>
</g>
</svg>
