<?xml version="1.0" encoding="utf-8"?>
<!-- Generator: Adobe Illustrator 25.1.0, SVG Export Plug-In . SVG Version: 6.00 Build 0)  -->
<svg version="1.1" id="Layer_1" xmlns="http://www.w3.org/2000/svg" xmlns:xlink="http://www.w3.org/1999/xlink" x="0px" y="0px"
	 viewBox="0 0 155.2 136.5" style="enable-background:new 0 0 155.2 136.5;" xml:space="preserve">
<style type="text/css">
	.st0{clip-path:url(#SVGID_2_);}
	.st1{fill:#F4F3F4;}
	.st2{fill:#E5262B;}
</style>
<g>
	<defs>
		<rect id="SVGID_1_" x="5.2" y="6.3" width="151.9" height="122.7"/>
	</defs>
	<clipPath id="SVGID_2_">
		<use xlink:href="#SVGID_1_"  style="overflow:visible;"/>
	</clipPath>
	<g class="st0">
		<path class="st1" d="M59.4-6.1L68,8.6c-13.1,8.6-22.8,17.3-29.2,26.1C32.5,43.5,29,53,28.5,63.1c3.3-0.7,5.7-1.1,7.2-1.3
			c1.5-0.2,2.9-0.3,4.2-0.3c8.6,0,15.6,3,20.9,9c5.3,6,7.9,13.9,7.9,23.7c0,10.4-3.2,18.8-9.4,25.2c-6.3,6.4-14.5,9.6-24.5,9.6
			c-10.3,0-18.8-4.3-25.5-12.8c-6.7-8.5-10-19.4-10-32.7c0-18,5-34.5,15.1-49.6C24.5,19,39.5,5.6,59.4-6.1z"/>
		<path class="st1" d="M136.8-6.1l8.6,14.7c-13,8.5-22.7,17.2-29.2,26.1c-6.5,8.9-9.9,18.4-10.3,28.4c3.2-0.7,5.5-1.1,7.1-1.3
			c1.5-0.2,2.9-0.3,4.2-0.3c8.8,0,15.8,3,21.1,8.9c5.3,5.9,7.9,13.9,7.9,23.9c0,10.4-3.1,18.8-9.4,25.2c-6.3,6.4-14.5,9.6-24.5,9.6
			c-10.3,0-18.7-4.2-25.4-12.5C80.3,108.2,77,97.3,77,84c0-18.2,5-34.8,15-49.9C101.9,19,116.9,5.6,136.8-6.1z"/>
	</g>
</g>
<path class="st2" d="M96.6,57.5l2.2,3.8c-3.4,2.2-5.9,4.5-7.5,6.7c-1.6,2.3-2.5,4.7-2.7,7.3c0.9-0.2,1.5-0.3,1.9-0.3
	c0.4-0.1,0.8-0.1,1.1-0.1c2.2,0,4,0.8,5.4,2.3c1.4,1.5,2,3.6,2,6.1c0,2.7-0.8,4.8-2.4,6.5c-1.6,1.7-3.7,2.5-6.3,2.5
	c-2.7,0-4.8-1.1-6.6-3.3c-1.7-2.2-2.6-5-2.6-8.4c0-4.6,1.3-8.9,3.9-12.8C87.6,64,91.5,60.5,96.6,57.5z"/>
<path class="st2" d="M115.9,57.5l2.2,3.8c-3.4,2.2-5.9,4.5-7.5,6.7c-1.6,2.3-2.5,4.7-2.7,7.3c0.9-0.2,1.5-0.3,1.9-0.3
	c0.4-0.1,0.8-0.1,1.1-0.1c2.2,0,4,0.8,5.4,2.3c1.4,1.5,2,3.6,2,6.1c0,2.7-0.8,4.8-2.4,6.5c-1.6,1.7-3.7,2.5-6.3,2.5
	c-2.7,0-4.8-1.1-6.6-3.3c-1.7-2.2-2.6-5-2.6-8.4c0-4.6,1.3-8.9,3.9-12.8C106.9,64,110.8,60.5,115.9,57.5z"/>
</svg>
